<svg id="Layer_1" data-name="Layer 1" xmlns="http://www.w3.org/2000/svg" viewBox="0 0 155.99 41.63"><defs><style>.cls-1{fill:#008996;}</style></defs><path class="cls-1" d="M233.49,3518.62h7.82l-9.46,15.76h22.67l5.72-9.81-3.89-6H264l8.56,15.24-14.37,22.06h-7.1l9.13-15.55H237.57l-5.44,8.37,4.59,7.18h-7.79l-9.37-14.25Zm14.29,6-4.71,7.6h-7.38l8.17-13.61H244Zm6.14-5.75,3.76,5.76-4.42,7.59h-7.62l4.71-7.6h0Zm-5.46,23.64h7.93l-7.5,12.77-4.43-5.79Zm-13.74,6.23,4.05-6.23h7.17l-7.18,12.55Zm4.84,9.32,3.73-6.52,5,6.52h11.07l15.72-24.13-9.82-17.48h-12.4l-3.78,6.1-3.8-6.1h-13L217,3541.72l10.76,16.36Z" transform="translate(-119.09 -3516.46)"/><path class="cls-1" d="M135.63,3521.24a16.32,16.32,0,0,1,5.67.95l1.41-4.54a19.41,19.41,0,0,0-7.35-1.13c-9,0-16.28,4.8-16.28,13.5,0,7.26,5.31,12.78,15.62,12.78a22.76,22.76,0,0,0,7.61-1.1l-1-4.54a18.53,18.53,0,0,1-5.66.83c-6,0-9.51-3.21-9.51-8.32,0-5.67,4.16-8.43,9.46-8.43" transform="translate(-119.09 -3516.46)"/><rect class="cls-1" x="27.74" y="0.43" width="6.73" height="25.49"/><path class="cls-1" d="M168.46,3538.15a14.73,14.73,0,0,1-2.35-.11v-16.68a16.65,16.65,0,0,1,3.05-.23c5.84,0,9.47,2.8,9.47,8.09,0,6.09-4,9-10.17,8.92m12.25-18.72c-2.83-1.82-6.55-2.72-12.25-2.72a69.52,69.52,0,0,0-9.07.57v25a67.58,67.58,0,0,0,7.66.38c5.84,0,10.66-1.06,13.8-3.29a12.22,12.22,0,0,0,4.91-10.32,10.72,10.72,0,0,0-5-9.6" transform="translate(-119.09 -3516.46)"/><path class="cls-1" d="M199.48,3538.38a25.22,25.22,0,0,1-2.61-.07v-7.19h2.3c3.36,0,6.06,1,6.06,3.55s-2.7,3.71-5.75,3.71m-2.61-17.32a20.84,20.84,0,0,1,2.88-.15c3.06,0,4.78,1,4.78,2.95s-1.85,3.14-5.44,3.14h-2.21Zm14.42,2.12a5.49,5.49,0,0,0-3.53-5c-2.22-1.1-4.74-1.44-8.85-1.44a68.82,68.82,0,0,0-8.72.53v25a60.92,60.92,0,0,0,7.3.38c5.93,0,9.56-.83,11.73-2.3a6.51,6.51,0,0,0,3.1-5.45c0-3.25-2.52-5.48-5.93-6.24v-.08c3.36-1.1,4.91-3.18,4.91-5.41" transform="translate(-119.09 -3516.46)"/><path class="cls-1" d="M127.39,3549.06l-1.14,3c-.37,1-.74,2.16-1,3.2h-.07a33.13,33.13,0,0,0-.92-3.18l-1.07-3h-3.27l-.69,8.9h2.27l.21-3.38c.07-1.11.13-2.48.18-3.69h0c.27,1.16.63,2.43,1,3.49l1.16,3.43h1.92l1.32-3.47c.42-1,.87-2.31,1.23-3.45h0c0,1.3.05,2.59.1,3.66l.18,3.41h2.39l-.58-8.9Z" transform="translate(-119.09 -3516.46)"/><path class="cls-1" d="M139.14,3554.17l.65-1.89c.18-.51.34-1.19.5-1.72h0c.16.53.35,1.19.55,1.72l.68,1.89Zm-.35-5.11-3.31,8.9H138l.78-2.29h3.11l.84,2.29h2.66l-3.39-8.9Z" transform="translate(-119.09 -3516.46)"/><polygon class="cls-1" points="33.44 32.6 30.99 32.6 30.99 41.5 37.77 41.5 37.77 39.81 33.44 39.81 33.44 32.6"/><path class="cls-1" d="M164.51,3554.17l.64-1.89c.18-.51.34-1.19.5-1.72h0c.16.53.35,1.19.55,1.72l.68,1.89Zm-.35-5.11-3.3,8.9h2.53l.77-2.29h3.11l.84,2.29h2.66l-3.38-8.9Z" transform="translate(-119.09 -3516.46)"/><path class="cls-1" d="M178.59,3551.2c-.32.63-.58,1.15-.82,1.7h0c-.26-.58-.5-1.06-.84-1.7l-1.1-2.14H173l3.43,5.26V3558h2.45v-3.71l3.58-5.19h-2.76Z" transform="translate(-119.09 -3516.46)"/><path class="cls-1" d="M190.6,3552.68c-1.42-.43-2-.69-2-1.26s.51-.86,1.58-.86a6,6,0,0,1,2.26.42l.55-1.61a7.6,7.6,0,0,0-2.77-.45c-2.55,0-4.11,1.15-4.11,2.67,0,1.3,1.2,2.11,3,2.64,1.31.37,1.82.69,1.82,1.24s-.59,1-1.73,1a7.34,7.34,0,0,1-2.72-.55l-.5,1.65a8.43,8.43,0,0,0,3.08.55c3,0,4.37-1.27,4.37-2.76,0-1.25-.89-2.07-2.81-2.65" transform="translate(-119.09 -3516.46)"/><rect class="cls-1" x="79.24" y="32.6" width="2.45" height="8.9"/><path class="cls-1" d="M209,3554.17l.64-1.89c.18-.51.34-1.19.5-1.72h0c.16.53.35,1.19.55,1.72l.68,1.89Zm-.36-5.11-3.3,8.9h2.53l.77-2.29h3.11l.84,2.29h2.66l-3.39-8.9Z" transform="translate(-119.09 -3516.46)"/></svg>